<svg width="300" height="300" viewBox="0 0 300 300" fill="none" xmlns="http://www.w3.org/2000/svg">
<path d="M0 66.55C0 29.7954 29.7954 0 66.55 0H233.45C270.205 0 300 29.7954 300 66.55V233.45C300 270.205 270.205 300 233.45 300H66.55C29.7954 300 0 270.205 0 233.45V66.55Z" fill="url(#paint0_linear_23_1921)"/>
<path fill-rule="evenodd" clip-rule="evenodd" d="M250.624 69.2479L199.901 55.6642L191.719 92.4607L207.313 96.6441L179.051 211.331H147.435L152.702 232.385H210.069L250.624 69.2479ZM145.146 211.329L137.271 157.844L123.177 211.271L94.11 203.473L122.394 88.695L156.286 88.695L164.142 142.182L178.244 88.8455L188.289 91.5405L182.415 65.1213H118.775L108.296 112.254L99.6962 72.5867L49.375 86.3997L85.9549 244.336H136.89L145.146 211.329Z" fill="black"/>
<defs>
<linearGradient id="paint0_linear_23_1921" x1="17.0024" y1="3.86658e-07" x2="330.49" y2="435.497" gradientUnits="userSpaceOnUse">
<stop offset="0.142546" stop-color="#28FFF2"/>
<stop offset="0.789429" stop-color="#4B52FF"/>
</linearGradient>
</defs>
</svg>
