<svg width="461" height="411" viewBox="0 0 461 411" fill="none" xmlns="http://www.w3.org/2000/svg">
<path fill-rule="evenodd" clip-rule="evenodd" d="M408.304 407.639L409.116 393.583L387.306 395.173V382.264H405.128V366.835H387.306V356.768L407.87 355.179L408.567 341.557H365.994V407.639H408.304Z" fill="black"/>
<path d="M180.046 387.958C179.826 401.078 172.615 407.639 158.413 407.639H132.338L134.644 341.566H159.054C166.082 341.566 171.273 342.995 174.628 345.854C177.984 348.639 179.61 353.11 179.508 359.267C179.405 365.424 176.736 369.673 171.578 372.898C177.383 375.17 180.188 379.455 180.046 387.958ZM154.178 395.434C156.398 395.434 157.885 394.958 158.641 394.005C159.471 392.979 160.405 391.261 160.674 388.146C160.946 385.001 160.317 382.607 159.524 381.361C158.733 380.042 157.264 379.382 155.119 379.382H150.459L149.795 395.434H154.178ZM155.682 367.502C157.384 367.502 158.576 366.989 159.259 365.963C159.941 364.937 160.313 363.894 160.576 360.553C160.62 357.915 160.052 356.104 159.33 355.078C158.682 353.979 157.508 353.429 155.807 353.429H151.146L150.911 367.502H155.682Z" fill="black"/>
<path d="M252.135 348.533C256.337 343.224 263.184 340.57 272.676 340.57C282.167 340.57 288.941 343.189 292.999 348.427C297.128 353.664 299.193 362.193 299.193 374.014C299.193 385.763 297.092 394.469 292.89 400.131C288.688 405.794 281.877 408.625 272.458 408.625C263.039 408.625 256.265 405.829 252.135 400.238C248.005 394.646 245.94 385.975 245.94 374.226C245.94 362.406 248.005 353.841 252.135 348.533ZM280.5 373.961C280.5 367.449 279.957 363.114 278.87 360.849C277.856 358.513 275.882 357.345 272.621 357.345C269.433 357.345 267.205 358.513 266.263 360.849C265.322 363.114 264.851 367.52 264.851 373.961C264.851 380.826 265.358 387.957 266.372 390.151C267.459 392.275 269.433 393.23 272.621 393.23C275.882 393.23 278.146 392.204 279.088 390.151C280.03 388.099 280.5 380.402 280.5 373.961Z" fill="black"/>
<path d="M7.35965 407.639L0.688477 336.625H20.8129L24.0876 373.822L29.5358 336.625H51.934L53.4709 374.281L59.3569 336.625H80.2146L66.9137 407.639H40.3656L38.5853 373.646L31.8509 407.639H7.35965Z" fill="black"/>
<path d="M241.553 338.598L237.654 407.639H216.637L204.886 370.536L201.972 407.639H183.734L188.151 338.598H208.373L220.996 377.313L223.647 338.598H241.553Z" fill="black"/>
<path d="M459.69 389.544L459.681 407.639H418.212L414.256 341.557H436.442L439.85 392.596L459.69 389.544Z" fill="black"/>
<path d="M361 341.301L349.023 407.383H313.485L301.949 341.301H324.91L331.15 394.395L338.647 341.301H361Z" fill="black"/>
<path d="M127.361 393.583L126.549 407.639H84.2393V341.557H126.812L126.115 355.178L105.551 356.768V366.835H123.373V382.263H105.551V395.173L127.361 393.583Z" fill="black"/>
<path fill-rule="evenodd" clip-rule="evenodd" d="M390.341 22.2239L309.862 0.625L296.881 59.1342L321.621 65.7857L276.78 248.146H226.619L234.975 281.624H325.995L390.341 22.2239ZM222.987 248.146L210.491 163.098L188.131 248.05L142.012 235.65L186.888 53.1462L240.661 53.1462L253.126 138.195L275.499 53.3856L291.439 57.671L282.119 15.6624H181.147L164.52 90.6065L150.876 27.5328L71.0352 49.4964L129.073 300.625H209.888L222.987 248.146Z" fill="black"/>
</svg>
