<svg width="461" height="411" viewBox="0 0 461 411" fill="none" xmlns="http://www.w3.org/2000/svg">
<path fill-rule="evenodd" clip-rule="evenodd" d="M408.304 407.389L409.116 393.333L387.306 394.923V382.014H405.128V366.585H387.306V356.518L407.87 354.929L408.567 341.307H365.994V407.389H408.304Z" fill="white"/>
<path d="M180.046 387.708C179.826 400.828 172.615 407.389 158.413 407.389H132.338L134.644 341.316H159.054C166.082 341.316 171.273 342.745 174.628 345.604C177.984 348.389 179.61 352.86 179.508 359.017C179.405 365.174 176.736 369.423 171.578 372.648C177.383 374.92 180.188 379.205 180.046 387.708ZM154.178 395.184C156.398 395.184 157.885 394.708 158.641 393.755C159.471 392.729 160.405 391.011 160.674 387.896C160.946 384.751 160.317 382.357 159.524 381.111C158.733 379.792 157.264 379.132 155.119 379.132H150.459L149.795 395.184H154.178ZM155.682 367.252C157.384 367.252 158.576 366.739 159.259 365.713C159.941 364.687 160.313 363.644 160.576 360.303C160.62 357.665 160.052 355.854 159.33 354.828C158.682 353.729 157.508 353.179 155.807 353.179H151.146L150.911 367.252H155.682Z" fill="white"/>
<path d="M252.135 348.283C256.337 342.974 263.184 340.32 272.676 340.32C282.167 340.32 288.941 342.939 292.999 348.177C297.128 353.414 299.193 361.943 299.193 373.764C299.193 385.513 297.092 394.219 292.89 399.881C288.688 405.544 281.877 408.375 272.458 408.375C263.039 408.375 256.265 405.579 252.135 399.988C248.005 394.396 245.94 385.725 245.94 373.976C245.94 362.156 248.005 353.591 252.135 348.283ZM280.5 373.711C280.5 367.199 279.957 362.864 278.87 360.599C277.856 358.263 275.882 357.095 272.621 357.095C269.433 357.095 267.205 358.263 266.263 360.599C265.322 362.864 264.851 367.27 264.851 373.711C264.851 380.576 265.358 387.707 266.372 389.901C267.459 392.025 269.433 392.98 272.621 392.98C275.882 392.98 278.146 391.954 279.088 389.901C280.03 387.849 280.5 380.152 280.5 373.711Z" fill="white"/>
<path d="M7.35965 407.389L0.688477 336.375H20.8129L24.0876 373.572L29.5358 336.375H51.934L53.4709 374.031L59.3569 336.375H80.2146L66.9137 407.389H40.3656L38.5853 373.396L31.8509 407.389H7.35965Z" fill="white"/>
<path d="M241.553 338.348L237.654 407.389H216.637L204.886 370.286L201.972 407.389H183.734L188.151 338.348H208.373L220.996 377.063L223.647 338.348H241.553Z" fill="white"/>
<path d="M459.69 389.294L459.681 407.389H418.212L414.256 341.307H436.442L439.85 392.346L459.69 389.294Z" fill="white"/>
<path d="M361 341.051L349.023 407.133H313.485L301.949 341.051H324.91L331.15 394.145L338.647 341.051H361Z" fill="white"/>
<path d="M127.361 393.333L126.549 407.389H84.2393V341.307H126.812L126.115 354.928L105.551 356.518V366.585H123.373V382.013H105.551V394.923L127.361 393.333Z" fill="white"/>
<path fill-rule="evenodd" clip-rule="evenodd" d="M390.342 21.9739L309.863 0.375L296.882 58.8842L321.622 65.5357L276.781 247.896H226.62L234.976 281.374H325.996L390.342 21.9739ZM222.988 247.896L210.492 162.848L188.132 247.8L142.013 235.4L186.889 52.8962L240.662 52.8962L253.127 137.945L275.5 53.1356L291.44 57.421L282.12 15.4124H181.148L164.521 90.3565L150.877 27.2828L71.0361 49.2464L129.074 300.375H209.889L222.988 247.896Z" fill="white"/>
</svg>
